<?xml version="1.0" encoding="utf-8"?>
<!-- Generator: Adobe Illustrator 22.0.0, SVG Export Plug-In . SVG Version: 6.00 Build 0)  -->
<svg version="1.1" xmlns="http://www.w3.org/2000/svg" xmlns:xlink="http://www.w3.org/1999/xlink" x="0px" y="0px"
	 viewBox="0 0 243.2 113.3" style="enable-background:new 0 0 243.2 113.3;" xml:space="preserve">
<style type="text/css">
	.st0{fill:#231F20;}
	.st1{fill:#FFFFFF;stroke:#FFFFFF;stroke-width:7;stroke-miterlimit:10;}
	.st2{fill:#FFFFFF;}
	.st3{fill:#FFFFFF;stroke:#FFFFFF;stroke-width:5;stroke-miterlimit:10;}
	.st4{fill:#FFFFFF;stroke:#231F20;stroke-width:0.125;stroke-miterlimit:10;}
	.st5{fill:#231F20;stroke:#231F20;stroke-width:0.125;stroke-linecap:round;stroke-linejoin:round;stroke-miterlimit:10;}
	.st6{clip-path:url(#SVGID_2_);fill:#FFFFFF;}
	.st7{fill:none;stroke:#FFFFFF;stroke-width:1.5;stroke-miterlimit:10;}
	.st8{fill:#231F20;stroke:#FFFFFF;stroke-width:1.5;stroke-miterlimit:10;}
	.st9{fill:none;stroke:#231F20;stroke-width:1.5;stroke-miterlimit:10;}
	.st10{fill:#003366;}
</style>
<g id="Layer_1">
	<path class="st10" d="M91,78c10.8-2.3,22.7-5.5,35.1-9.4c44.8-14.1,78.9-32.6,76.1-41.4c-1.4-4.4-12-5.5-27.9-3.7l0,0
		c0,0-2.3-3.3-6.4-7.1c41.7-8.9,72.2-9.6,75.1-0.2c3.5,11.2-33.3,33.1-86,52.5l0,0v37.7c-14.1,6.8-28.9,6.9-31.9,6.9
		c-24.2,0-40.4-8.1-49.8-20.7l0,0c-41.6,8.9-72,9.5-75,0.1c-3-9.6,23.8-27.2,64.9-44.2C68.6,21.1,89.7,0,125.1,0
		c10.7,0,20.8,2.6,29.5,7.2l-5.5,17.6c-6.5-4-14.2-6.4-22.6-6.4c-26.2,0-40.8,17.1-40.8,38.3C85.7,64.6,87.3,71.9,91,78 M98.8,87
		c6.5,5,15.6,8,27.7,8c1.2,0,5.2,0,10.2-1V75.8C113,83.5,98.8,87,98.8,87z M65.9,70.7c-1.3-6.2-1.3-13.4-1.3-13.4
		c-16.5,8.4-26.2,16.2-24.6,21c1.4,4.6,12.6,5.6,29.2,3.5C69.2,81.8,67.5,78.2,65.9,70.7z"/>
</g>
<g id="Layer_2">
</g>
</svg>
